<?xml version="1.0" ?><svg height="60px" version="1.1" viewBox="0 0 60 60" width="60px" xmlns="http://www.w3.org/2000/svg" xmlns:xlink="http://www.w3.org/1999/xlink"><title/><desc/><defs/><g fill="none" fill-rule="evenodd" id="Page-1" stroke="none" stroke-linejoin="round" stroke-width="1"><g id="Google-Drive" stroke="#000000" stroke-width="2" transform="translate(1.000000, 1.000000)"><path d="M54,58 L4,58 C1.791,58 0,56.209 0,54 L0,4 C0,1.791 1.791,0 4,0 L54,0 C56.209,0 58,1.791 58,4 L58,54 C58,56.209 56.209,58 54,58 L54,58 Z" id="Stroke-129"/><polygon id="Stroke-142" points="53.0652 36.4817 19.6232 36.4817 12.5892 49.9997 45.4762 49.9997" stroke-linecap="round"/><polygon id="Stroke-143" points="21.0217 7.8376 4.9997 34.8216 12.5897 49.9996 28.0187 20.3476" stroke-linecap="round"/><polygon id="Stroke-144" points="36.2002 7.8376 21.0222 7.8376 37.0432 36.4816 53.0652 36.4816" stroke-linecap="round"/></g></g></svg>