<?xml version="1.0" ?><svg height="60px" version="1.1" viewBox="0 0 60 60" width="60px" xmlns="http://www.w3.org/2000/svg" xmlns:xlink="http://www.w3.org/1999/xlink"><title/><desc/><defs/><g fill="none" fill-rule="evenodd" id="Page-1" stroke="none" stroke-width="1"><g id="Dropbox" stroke="#000000" stroke-width="2" transform="translate(1.000000, 1.000000)"><polygon id="Stroke-30" points="50.8 17.4146 41.889 24.6056 28.9 16.5206 37.916 8.9376"/><polygon id="Stroke-31" points="50.8 31.7956 37.916 40.2776 28.9 32.6896 41.889 24.6056"/><polygon id="Stroke-32" points="41.8392 39.3374 41.8392 42.1934 28.9272 50.0004 16.0152 42.1934 16.0152 39.3374 19.8842 41.8874 28.9272 34.3234 37.9652 41.8874"/><polygon id="Stroke-33" points="28.9 16.5204 15.911 24.6054 7 17.4144 19.884 8.9374"/><polygon id="Stroke-34" points="28.9 32.6899 19.884 40.2769 7 31.7959 15.911 24.6049"/><path d="M54,58 L4,58 C1.791,58 0,56.209 0,54 L0,4 C0,1.791 1.791,0 4,0 L54,0 C56.209,0 58,1.791 58,4 L58,54 C58,56.209 56.209,58 54,58 L54,58 Z" id="Stroke-119" stroke-linejoin="round"/></g></g></svg>