<?xml version="1.0" ?><svg height="60px" version="1.1" viewBox="0 0 60 60" width="60px" xmlns="http://www.w3.org/2000/svg" xmlns:xlink="http://www.w3.org/1999/xlink"><title/><desc/><defs/><g fill="none" fill-rule="evenodd" id="Page-1" stroke="none" stroke-width="1"><g id="Tumblr" stroke="#000000" stroke-width="2" transform="translate(1.000000, 1.000000)"><path d="M42,49.3906 L39.907,43.0576 C39.097,43.4506 37.551,43.7936 36.398,43.8216 C32.917,43.9186 32.241,41.3216 32.213,39.4416 L32.213,25.6086 L40.949,25.6086 L40.949,18.8766 L32.241,18.8766 L32.241,7.5576 L25.87,7.5576 C25.768,7.5576 25.583,7.6496 25.56,7.8856 C25.185,11.3536 23.597,17.4326 17,19.8626 L17,25.6086 L21.403,25.6086 L21.403,40.1266 C21.403,45.0986 24.991,52.1636 34.468,51.9976 C37.667,51.9416 41.213,50.5716 42,49.3906 L42,49.3906 Z" id="Stroke-21"/><path d="M54,58 L4,58 C1.791,58 0,56.209 0,54 L0,4 C0,1.791 1.791,0 4,0 L54,0 C56.209,0 58,1.791 58,4 L58,54 C58,56.209 56.209,58 54,58 L54,58 Z" id="Stroke-104" stroke-linejoin="round"/></g></g></svg>