<?xml version="1.0" ?><!DOCTYPE svg  PUBLIC '-//W3C//DTD SVG 1.1//EN'  'http://www.w3.org/Graphics/SVG/1.1/DTD/svg11.dtd'><svg enable-background="new 0 0 512 512" id="Layer_1" version="1.1" viewBox="0 0 512 512" xml:space="preserve" xmlns="http://www.w3.org/2000/svg" xmlns:xlink="http://www.w3.org/1999/xlink"><g><path d="M48.8,257.5c0-40.5,0.1-81-0.1-121.5c0-3.9,1.3-5.9,4.5-7.8c66-40.1,132-80.2,197.9-120.5c4.4-2.7,7.3-2.5,11.5,0.1   c66,40.4,132.2,80.6,198.4,120.8c3,1.8,3.9,3.9,3.9,7.2c-0.1,81-0.1,162,0,243c0,3.6-0.9,5.6-4.1,7.5   c-66.9,40.6-133.7,81.3-200.5,122.1c-2.7,1.7-4.5,1.4-7.1-0.1c-66.9-40.8-133.9-81.6-200.9-122.3c-3-1.8-3.4-3.9-3.4-6.9   C48.9,338.5,48.8,298,48.8,257.5z M451.8,257c0-37.3-0.1-74.7,0.1-112c0-4.9-1.4-7.6-5.7-10.2C384.6,97.5,323,60,261.5,22.4   c-3.4-2.1-5.8-2.2-9.3-0.1c-61.9,37.9-123.9,75.6-186,113.2c-3.2,1.9-4.5,3.9-4.5,7.8c0.1,76,0.1,152,0,228c0,3.6,1.1,5.6,4.2,7.5   c62.2,37.7,124.3,75.6,186.4,113.5c3.2,2,5.5,2.1,8.8,0.1c61.9-37.9,123.9-75.6,186-113.3c3.4-2,4.8-4.1,4.8-8.2   C451.8,333,451.8,295,451.8,257z"/><path d="M392.5,295.3c-2.5,0-4.2,0-5.8,0c-28.8-0.4-57.6-0.8-86.4-1.2c-3,0-4.8-0.7-6.3-3.6c-26.6-49.2-53.3-98.3-80-147.4   c-0.6-1.1-1.1-2.3-1.8-4c2.1-0.1,3.7-0.2,5.3-0.2c27,0,54,0.1,81-0.1c3.9,0,5.9,1.3,7.8,4.6c28,49.2,56.1,98.2,84.2,147.3   C391,291.9,391.4,293.1,392.5,295.3z"/><path d="M167.7,377.6c2.6-4.5,4.9-8.5,7.2-12.5c11.7-20.3,23.4-40.6,35.3-60.8c1-1.8,3.6-3.7,5.5-3.7c59.6,0.7,119.2,1.7,178.8,2.6   c0.3,0,0.6,0.1,1.5,0.3c-0.5,1.2-0.9,2.4-1.5,3.4c-14.1,22.5-28.3,45.1-42.4,67.6c-1.6,2.5-3.3,3.6-6.4,3.6   c-57.9-0.2-115.9-0.3-173.8-0.4C170.7,377.8,169.6,377.7,167.7,377.6z"/><path d="M206.1,141.8c10,18.9,19.6,37,29.1,55c4,7.6,7.9,15.4,12.2,22.9c1.5,2.7,1.4,4.6-0.2,7.2c-25.4,42.6-50.7,85.2-76,127.9   c-4.2,7.1-8.4,14.2-13.2,22.1c-2.8-5.9-5.3-10.9-7.7-16c-9.8-20.6-19.7-41.1-29.3-61.8c-0.9-1.9-1-5,0-6.7   c27.6-49.2,55.3-98.3,83-147.4C204.5,144.2,205,143.4,206.1,141.8z"/></g></svg>