<?xml version="1.0" ?><!DOCTYPE svg  PUBLIC '-//W3C//DTD SVG 1.1//EN'  'http://www.w3.org/Graphics/SVG/1.1/DTD/svg11.dtd'><svg enable-background="new 0 0 512 512" id="Layer_1" version="1.1" viewBox="0 0 512 512" xml:space="preserve" xmlns="http://www.w3.org/2000/svg" xmlns:xlink="http://www.w3.org/1999/xlink"><g><path d="M48.8,257.3c0-40.3,0-80.7-0.1-121c0-3.7,0.9-5.9,4.3-8C119.2,88.2,185.3,47.9,251.4,7.5c3.8-2.3,6.6-2.7,10.7-0.2   c66.3,40.6,132.7,81,199.2,121.3c2.9,1.7,3.6,3.6,3.6,6.8c-0.1,81.3-0.1,162.7,0,244c0,3-0.8,4.8-3.5,6.4   c-67.2,40.8-134.3,81.6-201.4,122.6c-2.6,1.6-4.3,1.3-6.7-0.2C186.3,467.4,119.2,426.5,52,385.7c-2.8-1.7-3.2-3.6-3.2-6.5   C48.9,338.6,48.8,297.9,48.8,257.3z M61.8,257.4c0,38,0.1,76-0.1,114c0,3.6,1,5.6,4.1,7.5c62.2,37.7,124.4,75.5,186.4,113.5   c3.5,2.2,5.9,1.9,9.3-0.2c62.1-37.9,124.2-75.8,186.4-113.5c3.3-2,3.9-4.3,3.9-7.7c-0.1-75.3-0.1-150.7,0.1-226   c0-4.9-1.4-7.6-5.6-10.2C384.6,97.5,323.1,60,261.6,22.4c-3.4-2.1-5.8-2.3-9.3-0.1c-61.9,37.9-123.9,75.6-186,113.2   c-3.5,2.1-4.5,4.4-4.5,8.3C61.9,181.7,61.8,219.5,61.8,257.4z"/><path d="M335.2,285.1c-24.5,0-48.4,0-72.8,0c0-17.7,0-35,0-52.8c42.3,0,84.7,0,127.3,0c4.1,14.6,4.1,29.5,2.2,44.4   c-5.5,43.5-25.2,78.3-64,100.4c-72.5,41.4-167.9,5.1-195.2-74c-24.6-71.3,10.1-147.1,79.8-174.2c47.2-18.4,104.2-8.2,139,24.6   c-13.2,13-26.4,26-39.8,39.1c-5.4-3-11.6-7.2-18.4-10.1c-52.2-22.9-112,16-112.4,73c-0.4,54.6,49.2,93.4,102.6,80.4   c22.4-5.5,39.4-17.3,48.5-39.1c1-2.4,1.8-5,2.5-7.6C334.9,288,334.9,286.9,335.2,285.1z"/></g></svg>