<?xml version="1.0" ?><!DOCTYPE svg  PUBLIC '-//W3C//DTD SVG 1.1//EN'  'http://www.w3.org/Graphics/SVG/1.1/DTD/svg11.dtd'><svg enable-background="new 0 0 512 512" id="Layer_1" version="1.1" viewBox="0 0 512 512" xml:space="preserve" xmlns="http://www.w3.org/2000/svg" xmlns:xlink="http://www.w3.org/1999/xlink"><g><path d="M48.8,257.3c0-40.5,0-81-0.1-121.5c0-3.6,1.1-5.6,4.2-7.5C119.3,88.1,185.6,47.8,251.8,7.3c3.8-2.3,6.5-2.3,10.2,0   c66.3,40.6,132.7,81,199.2,121.3c2.8,1.7,3.7,3.6,3.7,6.8c-0.1,81.3-0.1,162.7,0,244c0,3.3-1.1,5-3.8,6.7   c-67,40.7-134,81.5-200.9,122.3c-2.5,1.5-4.3,1.4-6.7-0.1c-67.1-40.9-134.2-81.8-201.4-122.6c-2.8-1.7-3.3-3.6-3.3-6.5   C48.9,338.7,48.8,298,48.8,257.3z M451.8,257.5c0-38-0.1-76,0.1-114c0-3.8-1.2-5.9-4.4-7.8C385.2,97.8,322.9,59.9,260.6,21.9   c-2.8-1.7-4.7-1.8-7.6,0C190.7,60,128.3,97.9,65.8,135.9c-2.9,1.8-4,3.6-4,7.1c0.1,76.2,0.1,152.3,0,228.5c0,3.6,1.1,5.6,4.2,7.5   c62.2,37.7,124.3,75.6,186.4,113.5c3.3,2,5.5,2.1,8.8,0c62.2-38,124.5-75.9,186.9-113.8c3.1-1.9,3.8-3.9,3.8-7.2   C451.8,333.5,451.8,295.5,451.8,257.5z"/><path d="M117.8,257.1c0-20,0.4-40-0.1-60c-1-37.8,27.7-69.3,64.3-77c7.4-1.6,15.2-2.1,22.8-2.2c36.2-0.2,72.3-0.6,108.5,0.1   c33.8,0.7,59.7,15.6,75.6,46c5.3,10.1,7.2,21,7.2,32.3c0,40,0,80,0,120c0,33.7-19.9,62.5-51.9,73.6c-9.6,3.3-20.1,5.7-30.2,5.9   c-38.1,0.7-76.3,0.9-114.5,0.1c-31.8-0.7-56.9-14.8-73.1-42.9c-5.9-10.3-8.7-21.5-8.7-33.5C117.9,298.7,117.8,277.9,117.8,257.1z    M138.5,257c0,20.2,0,40.3,0,60.5c0,17.2,6.8,31.3,19.9,42.3c13.1,11,28.4,15.6,45.3,15.7c35.5,0,71,0.2,106.4-0.2   c7.9-0.1,16-1.4,23.6-3.6c24.6-6.9,41.6-29,41.7-53.7c0.2-40.8,0.1-81.6,0-122.4c0-11.1-3.1-21.4-9.7-30.4   c-13.7-18.7-32.6-26.7-55.2-26.7c-35.6-0.1-71.3-0.1-106.9,0c-5.8,0-11.7,0.6-17.3,1.8c-25.5,5.6-48.8,27-47.8,58.6   C139,218.3,138.5,237.7,138.5,257z"/><path d="M257.1,316.5c-36.1,0-65.4-29.1-65.3-64.9c0.1-35.3,29.8-64.4,65.5-64.3c35.6,0.1,65.3,29.4,65.4,64.6   C322.9,287.2,293.2,316.5,257.1,316.5z M301.8,251.8c0-24.1-20.1-43.8-44.6-43.8c-24.3,0-44.6,19.8-44.8,43.7   c-0.1,24,20.5,44.3,45,44.1C281.9,295.7,301.9,275.9,301.8,251.8z"/><path d="M330.2,196.1c-7.7,0-13.6-6-13.7-14c-0.1-7.9,5.8-14.2,13.4-14.3c7.8-0.1,14.1,6.3,14,14.3   C343.9,190,337.9,196.1,330.2,196.1z"/></g></svg>