<?xml version="1.0" ?><!DOCTYPE svg  PUBLIC '-//W3C//DTD SVG 1.1//EN'  'http://www.w3.org/Graphics/SVG/1.1/DTD/svg11.dtd'><svg enable-background="new 0 0 512 512" id="Layer_1" version="1.1" viewBox="0 0 512 512" xml:space="preserve" xmlns="http://www.w3.org/2000/svg" xmlns:xlink="http://www.w3.org/1999/xlink"><g><path d="M464.8,257.5c0,40.3-0.1,80.7,0.1,121c0,3.8-1,5.9-4.3,7.9c-66.8,40.5-133.4,81.1-200.1,121.8c-2.6,1.6-4.4,1.8-7.1,0.1   C186.3,467.3,119.2,426.5,52,385.7c-2.5-1.5-3.2-3.2-3.2-6c0.1-81.5,0.1-163,0-244.5c0-3.3,1.1-5,3.9-6.7   C119.1,88.2,185.5,47.8,251.8,7.2c3.5-2.2,6.1-2.4,9.8-0.1c66.5,40.6,133,81.2,199.6,121.6c2.9,1.7,3.6,3.7,3.6,6.8   C464.8,176.2,464.8,216.8,464.8,257.5z M61.8,257.4c0,38,0.1,76-0.1,114c0,3.6,1.1,5.6,4.2,7.5c62.2,37.7,124.3,75.6,186.4,113.5   c3.2,2,5.5,2.1,8.8,0.1c61.8-37.8,123.6-75.4,185.6-113c3.7-2.2,5.2-4.5,5.2-9c-0.2-75.3-0.2-150.7,0-226c0-4.5-1.4-7.1-5.3-9.4   c-61.8-37.4-123.5-75-185.2-112.7c-3.4-2.1-5.8-2.2-9.3-0.1c-61.9,37.9-123.9,75.6-186,113.2c-3.2,2-4.5,3.9-4.5,7.8   C61.9,181.4,61.8,219.4,61.8,257.4z"/><path d="M346.5,347.8c0,13.5,0,26,0,38.4c0,11.8-0.3,11.2-11.1,16.4c-21.2,10.1-43.4,12.5-66.3,10.4c-23.8-2.2-43-12.9-55.6-33.3   c-3.6-5.9-6.2-13.3-6.4-20.1c-1-31.5-1-63-1.3-94.4c-0.1-10.3-0.2-20.7,0-31c0.1-3.8-1.2-4.9-4.9-4.8c-8.4,0.2-16.9,0.1-25.9,0.1   c0-12.1,0.3-23.5-0.1-35c-0.3-6.9,1-10.7,8.3-14.1c24.6-11.7,38.4-32.5,44.7-58.6c1.4-5.7,2.4-11.4,3.1-17.2   c0.4-2.9,1.6-4.1,4.4-4.1c10.8,0.1,21.7,0.2,32.5,0.1c3.7,0,3.3,2.4,3.3,4.7c0.2,22.8,0.5,45.7,0.3,68.5c0,5.2,1.5,6.4,6.5,6.3   c18.3-0.3,36.7,0,55-0.2c3.7,0,5.3,0.8,5.2,5c-0.3,13.2-0.2,26.3,0,39.5c0.1,3.9-1.1,5.2-5.1,5.1c-19-0.2-38-0.1-57-0.1   c-1.3,0-2.6,0.2-4.2,0.4c-0.1,1.7-0.2,3.1-0.2,4.6c0.1,29.7,0.3,59.3,0.4,89c0,3.8,0.4,7.7,0.4,11.5c0.1,19.6,16.5,27.1,29.3,27.8   c14.9,0.8,28.1-4.1,40.5-12C343.3,349.9,344.4,349.1,346.5,347.8z"/></g></svg>