<?xml version="1.0" ?><!DOCTYPE svg  PUBLIC '-//W3C//DTD SVG 1.1//EN'  'http://www.w3.org/Graphics/SVG/1.1/DTD/svg11.dtd'><svg enable-background="new 0 0 512 512" id="Layer_1" version="1.1" viewBox="0 0 512 512" xml:space="preserve" xmlns="http://www.w3.org/2000/svg" xmlns:xlink="http://www.w3.org/1999/xlink"><g><path d="M48.8,256.9c0-40.3,0-80.7-0.1-121c0-3.6,1-5.6,4.2-7.5C119.1,88.2,185.2,48,251.3,7.6c4.1-2.5,7-2.6,11.1,0   C328.5,48,394.8,88.4,461.1,128.6c2.8,1.7,3.8,3.5,3.8,6.7c-0.1,81.3-0.1,162.7,0,244c0,3.3-1,5-3.8,6.7   c-67,40.7-134,81.5-200.9,122.3c-2.5,1.5-4.2,1.6-6.7,0c-67.1-40.9-134.2-81.8-201.4-122.6c-3-1.8-3.3-4-3.3-6.9   C48.8,338.2,48.8,297.6,48.8,256.9z M451.8,257.3c0-37.3-0.1-74.7,0.1-112c0-5.1-1.5-7.9-5.9-10.6   C384.4,97.4,322.9,59.9,261.3,22.3c-3.2-2-5.5-2.2-8.9-0.1C190.4,60.1,128.3,98,66,135.7c-3.3,2-4.3,4.2-4.3,7.9   c0.1,75.8,0.1,151.7,0,227.5c0,3.8,1.1,5.9,4.4,7.9c61.9,37.5,123.8,75.2,185.5,113c4,2.5,6.7,2.2,10.6-0.2   c61.5-37.6,123.1-75.1,184.7-112.5c3.9-2.3,5-4.8,5-9.1C451.8,332.6,451.8,295,451.8,257.3z"/><path d="M257.5,148.3c35.5,1.3,70.9,2.3,106.4,3.8c23,1,36,11.4,41.3,34c2.7,11.3,3.7,23,4.5,34.6c2,31.8,1.6,63.6-1.9,95.3   c-1.3,11.4-4.1,22.7-11.8,31.8c-8.9,10.5-21.1,13.3-34.1,14c-56.4,3.1-112.9,3.8-169.3,1.6c-15.1-0.6-30.3-1-45.3-2.7   c-23.8-2.8-35.4-13.9-38.9-37.7c-2.3-15.3-3.9-30.8-3.9-46.2c0-26.3,1.3-52.6,2.8-78.8c0.4-7.5,2.9-15,5.7-22.1   c5.4-13.8,16.4-21.4,30.9-22.7c18.9-1.7,37.9-2.5,56.8-3c19-0.5,38-0.1,57-0.1C257.4,149.4,257.5,148.9,257.5,148.3z M308.3,253.7   c-28-14.6-55-28.7-82.4-43c0,28.8,0,56.9,0,85.7C253.5,282.2,280.6,268.1,308.3,253.7z"/></g></svg>